Coordinates
version=1
nRows=16
nColumns=22
inDegrees=yes

Units are S.I. units (second, meters, Newtons, ...)
If the header above contains a line with 'inDegrees', this indicates whether rotational values are in degrees (yes) or radians (no).

endheader
time	pelvis_tilt	pelvis_list	pelvis_rotation	pelvis_tx	pelvis_ty	pelvis_tz	hip_flexion_r	hip_adduction_r	hip_rotation_r	knee_angle_r	ankle_angle_r	subtalar_angle_r	hip_flexion_l	hip_adduction_l	hip_rotation_l	knee_angle_l	ankle_angle_l	subtalar_angle_l	lumbar_extension	lumbar_bending	lumbar_rotation
      1.96000000	     -1.38972696	      1.15987520	    133.14170092	     -0.34328544	      1.00645658	      0.54557311	     23.80179983	     -0.34702198	    -17.90282929	    -31.35772679	     11.02977478	      1.11051639	     -1.07759088	      1.06810029	    -12.67020459	    -17.79852266	     17.70926091	     -0.99072494	    -16.76135999	     -0.93196399	     -1.11002260
      1.97000000	     -1.35185915	      1.21489714	    132.61214120	     -0.34701397	      1.00581756	      0.54100555	     23.92220695	     -0.11545624	    -19.27607099	    -29.77100225	     10.84557020	      1.49220767	     -1.61141784	      1.05592824	    -13.17917841	    -17.61417609	     17.98055141	     -0.92430263	    -16.80671506	     -0.86689274	     -1.22359395
      1.98000000	     -1.32156604	      1.25679849	    132.07161230	     -0.35084014	      1.00510476	      0.53626608	     24.01462891	      0.12604969	    -20.64461187	    -28.22968681	     10.65089851	      1.83061782	     -2.16243875	      1.06601187	    -13.71357705	    -17.41448429	     18.25494407	     -0.86877051	    -16.82478020	     -0.81019844	     -1.33881052
      1.99000000	     -1.38951824	      1.35093873	    131.50161976	     -0.35479162	      1.00449576	      0.53130450	     23.96559294	      0.34205897	    -22.03143543	    -26.76303672	     10.51528021	      2.23265766	     -2.88675368	      1.14003244	    -14.25638318	    -17.12970867	     18.48763759	     -0.75486442	    -16.94223618	     -0.80111055	     -1.36852139
      2.00000000	     -1.47871403	      1.44118528	    130.92688743	     -0.35886539	      1.00382635	      0.52616329	     23.87608297	      0.55080257	    -23.40691993	    -25.36998258	     10.39094847	      2.58451851	     -3.63847940	      1.24335476	    -14.83416773	    -16.84090633	     18.71098478	     -0.63262248	    -17.04609390	     -0.80304724	     -1.41235968
      2.01000000	     -1.58501773	      1.54180899	    130.35529041	     -0.36307274	      1.00310542	      0.52083955	     23.73692477	      0.75816455	    -24.77253140	    -24.06013963	     10.28516882	      2.89013780	     -4.42699410	      1.36636588	    -15.40679430	    -16.54618703	     18.93501967	     -0.50131806	    -17.14424520	     -0.80250063	     -1.44418313
      2.02000000	     -1.71273607	      1.66029490	    129.79908620	     -0.36737729	      1.00234449	      0.51535090	     23.54178680	      0.96332267	    -26.10666000	    -22.84210965	     10.19556822	      3.16730973	     -5.24919384	      1.50139915	    -15.97255851	    -16.26176855	     19.15233676	     -0.34582724	    -17.25703993	     -0.80234534	     -1.48032543
      2.03000000	     -1.83031248	      1.78300275	    129.28287819	     -0.37180000	      1.00148683	      0.50973574	     23.32001835	      1.17558940	    -27.38750341	    -21.71609878	     10.10529482	      3.39582789	     -6.04362503	      1.62303941	    -16.51056659	    -16.04227227	     19.38850227	     -0.19332367	    -17.34306645	     -0.77220122	     -1.54832456
      2.04000000	     -1.96145129	      1.91999648	    128.79674663	     -0.37629399	      1.00058434	      0.50400327	     23.05568003	      1.38672868	    -28.55505656	    -20.70028416	      9.99865826	      3.60763747	     -6.85181424	      1.75191532	    -16.98145512	    -15.84804498	     19.60997262	      0.00144675	    -17.44100397	     -0.73647003	     -1.61084409
      2.05000000	     -2.06677271	      2.04391719	    128.37066197	     -0.38083043	      0.99956259	      0.49821089	     22.79807406	      1.60534143	    -29.57655686	    -19.79401612	      9.85612967	      3.77769947	     -7.58523977	      1.85216214	    -17.39623191	    -15.74782776	     19.84829170	      0.19888687	    -17.50430372	     -0.67356117	     -1.71689007
      2.06000000	     -2.15796465	      2.16499491	    128.00280901	     -0.38539279	      0.99846231	      0.49236105	     22.53127064	      1.83255277	    -30.38708378	    -19.00528801	      9.66667847	      3.90886109	     -8.26196028	      1.92599945	    -17.73478066	    -15.73814556	     20.08751571	      0.41698513	    -17.54948893	     -0.58675029	     -1.85766821
      2.07000000	     -2.24185341	      2.27576445	    127.68677874	     -0.38995412	      0.99729736	      0.48647207	     22.26819376	      2.05230628	    -30.96561213	    -18.36203982	      9.42894686	      3.97736263	     -8.88022719	      1.98214150	    -18.01445129	    -15.81493548	     20.31643993	      0.67851535	    -17.58807056	     -0.49161884	     -2.01892794
      2.08000000	     -2.24995926	      2.35819137	    127.44232835	     -0.39452246	      0.99600260	      0.48054604	     22.05802852	      2.31223216	    -31.27999179	    -17.84135966	      9.10490882	      3.92617435	     -9.35561906	      1.95828811	    -18.21940889	    -16.02820367	     20.56930295	      0.88724748	    -17.54447083	     -0.33124690	     -2.23344982
      2.09000000	     -2.26176888	      2.44923919	    127.24045599	     -0.39907330	      0.99472841	      0.47459061	     21.83564302	      2.56473370	    -31.32468274	    -17.48513082	      8.69682734	      3.66580747	     -9.78763747	      1.90844114	    -18.37708797	    -16.34472189	     20.80927732	      1.16938699	    -17.52351435	     -0.15793594	     -2.46446454
      2.10000000	     -2.19292620	      2.52477140	    127.07179832	     -0.40366246	      0.99340211	      0.46852433	     21.66968675	      2.86145418	    -31.14738296	    -17.28580520	      8.19312306	      3.17672455	    -10.10834889	      1.77519862	    -18.50061074	    -16.76278092	     21.03595046	      1.41333372	    -17.41809804	      0.08924374	     -2.69638667
      2.11000000	     -2.11538842	      2.61332997	    126.92292451	     -0.40825606	      0.99215444	      0.46239717	     21.51939015	      3.15041080	    -30.76317341	    -17.29141019	      7.59977561	      2.20816997	    -10.38929950	      1.61464140	    -18.53591805	    -17.27504851	     21.22143098	      1.76108670	    -17.32380329	      0.36060505	     -2.90028746
